<svg viewBox="0 0 20 20">
<path d="M10.5001 -0.0078125C8.68982 -0.00747984 6.91358 0.484259 5.36085 1.41495C3.80811 2.34564 2.53715 3.68037 1.68352 5.27677C0.829889 6.87317 0.42562 8.67134 0.513835 10.4795C0.60205 12.2876 1.17944 14.0379 2.18441 15.5436C3.18939 17.0493 4.58424 18.254 6.2202 19.0291C7.85615 19.8043 9.67183 20.1208 11.4736 19.9449C13.2753 19.769 14.9955 19.1073 16.4506 18.0304C17.9058 16.9535 19.0413 15.5018 19.7361 13.8302C20.0771 13.0102 19.2601 12.1862 18.4381 12.5202C17.0293 13.0909 15.465 13.1498 14.0173 12.6866C12.5695 12.2235 11.3299 11.2676 10.5139 9.98521C9.69784 8.7028 9.35705 7.17497 9.55076 5.66734C9.74447 4.15972 10.4604 2.76765 11.5741 1.73319L11.6511 1.65319C12.2021 1.02319 11.7641 0.000187516 10.8931 0.000187516H10.6271L10.5591 -0.00581253L10.5001 -0.0078125Z" fill="white"/>
</svg>