<svg xmlns="http://www.w3.org/2000/svg" style="display: none;">
  <symbol id="arrow-right" viewBox="0 0 448 512">
    <path d="M438.6 278.6c12.5-12.5 12.5-32.8 0-45.3l-160-160c-12.5-12.5-32.8-12.5-45.3 0s-12.5 32.8 0 45.3L338.8 224 32 224c-17.7 0-32 14.3-32 32s14.3 32 32 32l306.7 0L233.4 393.4c-12.5 12.5-12.5 32.8 0 45.3s32.8 12.5 45.3 0l160-160z"/>
  </symbol>
  <symbol id="chevron-down" viewBox="0 0 512 512">
    <path d="M233.4 406.6c12.5 12.5 32.8 12.5 45.3 0l192-192c12.5-12.5 12.5-32.8 0-45.3s-32.8-12.5-45.3 0L256 338.7 86.6 169.4c-12.5-12.5-32.8-12.5-45.3 0s-12.5 32.8 0 45.3l192 192z"/>
  </symbol>
  <symbol id="chevron-up" viewBox="0 0 512 512">
    <path d="M233.4 105.4c12.5-12.5 32.8-12.5 45.3 0l192 192c12.5 12.5 12.5 32.8 0 45.3s-32.8 12.5-45.3 0L256 173.3 86.6 342.6c-12.5 12.5-32.8 12.5-45.3 0s-12.5-32.8 0-45.3l192-192z"/>
  </symbol>
  <symbol id="search" viewBox="0 0 512 512">
    <path d="M416 208c0 45.9-14.9 88.3-40 122.7L502.6 457.4c12.5 12.5 12.5 32.8 0 45.3s-32.8 12.5-45.3 0L330.7 376c-34.4 25.2-76.8 40-122.7 40C93.1 416 0 322.9 0 208S93.1 0 208 0S416 93.1 416 208zM208 352a144 144 0 1 0 0-288 144 144 0 1 0 0 288z"/>
  </symbol>
  <symbol id="moon" viewBox="0 0 22 22">
    <path d="M20.25 11C20.25 13.4533 19.2754 15.806 17.5407 17.5407C15.806 19.2754 13.4533 20.25 11 20.25V21.75C16.937 21.75 21.75 16.937 21.75 11H20.25ZM11 20.25C8.54675 20.25 6.19397 19.2754 4.45926 17.5407C2.72455 15.806 1.75 13.4533 1.75 11H0.25C0.25 16.937 5.063 21.75 11 21.75V20.25ZM1.75 11C1.75 8.54675 2.72455 6.19397 4.45926 4.45926C6.19397 2.72455 8.54675 1.75 11 1.75V0.25C5.063 0.25 0.25 5.063 0.25 11H1.75ZM14.5 13.25C12.975 13.25 11.5125 12.6442 10.4341 11.5659C9.3558 10.4875 8.75 9.02499 8.75 7.5H7.25C7.25 9.42282 8.01384 11.2669 9.37348 12.6265C10.7331 13.9862 12.5772 14.75 14.5 14.75V13.25ZM19.425 10.469C18.9133 11.3176 18.191 12.0197 17.3281 12.5069C16.4652 12.9942 15.491 13.2501 14.5 13.25V14.75C15.7494 14.7504 16.9777 14.4279 18.0657 13.8138C19.1537 13.1997 20.0646 12.3148 20.71 11.245L19.425 10.469ZM8.75 7.5C8.74986 6.50903 9.00583 5.53483 9.49309 4.67193C9.98035 3.80902 10.6824 3.08669 11.531 2.575L10.755 1.291C9.68535 1.93628 8.80058 2.84701 8.18649 3.93486C7.57239 5.02271 7.2498 6.25078 7.25 7.5H8.75ZM11 1.75C10.9497 1.74903 10.9002 1.73811 10.8542 1.71785C10.8082 1.6976 10.7666 1.66842 10.732 1.632C10.6898 1.58965 10.6613 1.53568 10.65 1.477C10.646 1.446 10.648 1.356 10.755 1.291L11.531 2.575C12.034 2.271 12.196 1.714 12.137 1.276C12.075 0.821 11.717 0.25 11 0.25V1.75ZM20.71 11.245C20.644 11.352 20.554 11.354 20.523 11.35C20.4643 11.3387 20.4103 11.3102 20.368 11.268C20.3316 11.2334 20.3024 11.1918 20.2821 11.1458C20.2619 11.0998 20.251 11.0503 20.25 11H21.75C21.75 10.283 21.179 9.925 20.724 9.863C20.286 9.804 19.729 9.966 19.425 10.469L20.71 11.245Z" fill="#2D3648"/>
  </symbol>
  <symbol id="moon-full" viewBox="0 0 20 20">
    <path d="M10.5001 -0.0078125C8.68982 -0.00747984 6.91358 0.484259 5.36085 1.41495C3.80811 2.34564 2.53715 3.68037 1.68352 5.27677C0.829889 6.87317 0.42562 8.67134 0.513835 10.4795C0.60205 12.2876 1.17944 14.0379 2.18441 15.5436C3.18939 17.0493 4.58424 18.254 6.2202 19.0291C7.85615 19.8043 9.67183 20.1208 11.4736 19.9449C13.2753 19.769 14.9955 19.1073 16.4506 18.0304C17.9058 16.9535 19.0413 15.5018 19.7361 13.8302C20.0771 13.0102 19.2601 12.1862 18.4381 12.5202C17.0293 13.0909 15.465 13.1498 14.0173 12.6866C12.5695 12.2235 11.3299 11.2676 10.5139 9.98521C9.69784 8.7028 9.35705 7.17497 9.55076 5.66734C9.74447 4.15972 10.4604 2.76765 11.5741 1.73319L11.6511 1.65319C12.2021 1.02319 11.7641 0.000187516 10.8931 0.000187516H10.6271L10.5591 -0.00581253L10.5001 -0.0078125Z" fill="currentColor"/>
  </symbol>
  <symbol id="sun" viewBox="0 0 512 512">
    <path d="M361.5 1.2c5 2.1 8.6 6.6 9.6 11.9L391 121l107.9 19.8c5.3 1 9.8 4.6 11.9 9.6s1.5 10.7-1.6 15.2L446.9 256l62.3 90.3c3.1 4.5 3.7 10.2 1.6 15.2s-6.6 8.6-11.9 9.6L391 391 371.1 498.9c-1 5.3-4.6 9.8-9.6 11.9s-10.7 1.5-15.2-1.6L256 446.9l-90.3 62.3c-4.5 3.1-10.2 3.7-15.2 1.6s-8.6-6.6-9.6-11.9L121 391 13.1 371.1c-5.3-1-9.8-4.6-11.9-9.6s-1.5-10.7 1.6-15.2L65.1 256 2.8 165.7c-3.1-4.5-3.7-10.2-1.6-15.2s6.6-8.6 11.9-9.6L121 121 140.9 13.1c1-5.3 4.6-9.8 9.6-11.9s10.7-1.5 15.2 1.6L256 65.1 346.3 2.8c4.5-3.1 10.2-3.7 15.2-1.6zM160 256a96 96 0 1 1 192 0 96 96 0 1 1 -192 0zm224 0a128 128 0 1 0 -256 0 128 128 0 1 0 256 0z"/>
  </symbol>
  <symbol id="x" viewBox="0 0 384 512">
    <path d="M342.6 150.6c12.5-12.5 12.5-32.8 0-45.3s-32.8-12.5-45.3 0L192 210.7 86.6 105.4c-12.5-12.5-32.8-12.5-45.3 0s-12.5 32.8 0 45.3L146.7 256 41.4 361.4c-12.5 12.5-12.5 32.8 0 45.3s32.8 12.5 45.3 0L192 301.3 297.4 406.6c12.5 12.5 32.8 12.5 45.3 0s12.5-32.8 0-45.3L237.3 256 342.6 150.6z"/>
  </symbol>
</svg>
