<svg xmlns="http://www.w3.org/2000/svg" style="display: none;">
  <symbol id="arrow-right" viewBox="0 0 448 512">
    <path d="M438.6 278.6c12.5-12.5 12.5-32.8 0-45.3l-160-160c-12.5-12.5-32.8-12.5-45.3 0s-12.5 32.8 0 45.3L338.8 224 32 224c-17.7 0-32 14.3-32 32s14.3 32 32 32l306.7 0L233.4 393.4c-12.5 12.5-12.5 32.8 0 45.3s32.8 12.5 45.3 0l160-160z"/>
  </symbol>
  <symbol id="chevron-down" viewBox="0 0 512 512">
    <path fill="#1E3050" d="M233.4 406.6c12.5 12.5 32.8 12.5 45.3 0l192-192c12.5-12.5 12.5-32.8 0-45.3s-32.8-12.5-45.3 0L256 338.7 86.6 169.4c-12.5-12.5-32.8-12.5-45.3 0s-12.5 32.8 0 45.3l192 192z"/>
  </symbol>
  <symbol id="chevron-up" viewBox="0 0 512 512">
    <path d="M233.4 105.4c12.5-12.5 32.8-12.5 45.3 0l192 192c12.5 12.5 12.5 32.8 0 45.3s-32.8 12.5-45.3 0L256 173.3 86.6 342.6c-12.5 12.5-32.8 12.5-45.3 0s-12.5-32.8 0-45.3l192-192z"/>
  </symbol>
  <symbol id="search" viewBox="0 0 512 512">
    <path fill="#858585" d="M416 208c0 45.9-14.9 88.3-40 122.7L502.6 457.4c12.5 12.5 12.5 32.8 0 45.3s-32.8 12.5-45.3 0L330.7 376c-34.4 25.2-76.8 40-122.7 40C93.1 416 0 322.9 0 208S93.1 0 208 0S416 93.1 416 208zM208 352a144 144 0 1 0 0-288 144 144 0 1 0 0 288z"/>
  </symbol>
  <symbol id="moon" viewBox="0 0 384 512">
    <path fill="#1E3050" d="M144.7 98.7c-21 34.1-33.1 74.3-33.1 117.3c0 98 62.8 181.4 150.4 211.7c-12.4 2.8-25.3 4.3-38.6 4.3C126.6 432 48 353.3 48 256c0-68.9 39.4-128.4 96.8-157.3zm62.1-66C91.1 41.2 0 137.9 0 256C0 379.7 100 480 223.5 480c47.8 0 92-15 128.4-40.6c1.9-1.3 3.7-2.7 5.5-4c4.8-3.6 9.4-7.4 13.9-11.4c2.7-2.4 5.3-4.8 7.9-7.3c5-4.9 6.3-12.5 3.1-18.7s-10.1-9.7-17-8.5c-3.7 .6-7.4 1.2-11.1 1.6c-5 .5-10.1 .9-15.3 1c-1.2 0-2.5 0-3.7 0c-.1 0-.2 0-.3 0c-96.8-.2-175.2-78.9-175.2-176c0-54.8 24.9-103.7 64.1-136c1-.9 2.1-1.7 3.2-2.6c4-3.2 8.2-6.2 12.5-9c3.1-2 6.3-4 9.6-5.8c6.1-3.5 9.2-10.5 7.7-17.3s-7.3-11.9-14.3-12.5c-3.6-.3-7.1-.5-10.7-.6c-2.7-.1-5.5-.1-8.2-.1c-3.3 0-6.5 .1-9.8 .2c-2.3 .1-4.6 .2-6.9 .4z"/>
  </symbol>
</svg>
